# xmcd CD database file
#
# Track frame offsets:
#	150
#	17935
#	35995
#	55846
#	76516
#	95693
#
# Disc length: 1510 seconds
#
# Revision: 0
# Processed by: cddbd v1.5PL3 Copyright (c) Steve Scherf et al.
# Submitted via: CDex 1.40Release
#
DISCID=4505e406
DTITLE=sae - WING
DYEAR=2003
DGENRE=Pop
TTITLE0=WING
TTITLE1=Discover
TTITLE2=ヘチタシホ
TTITLE3=角度
TTITLE4=靴紐
TTITLE5=WING(inst.)
EXTD=YEAR: 2003 ID3G: 13
EXTT0=
EXTT1=
EXTT2=
EXTT3=
EXTT4=
EXTT5=
PLAYORDER=
